<?xml version="1.0" standalone="no"?>
<svg xmlns="http://www.w3.org/2000/svg" viewBox="0 0 241.537 36" width="241.537" height="36"><g fill="#ead017" color="#ead017" transform="translate(0 4) scale(0.5384616)"><svg width="52.0" height="52.0" x="0.0" y="0.0" viewBox="0 0 52 52"><path fill="currentColor" fill-rule="evenodd" d="M18.22 33.35s9.278 9.366 25.673 11.515a26.024 26.024 0 0 1-4.652 3.512l-.054.034a25.875 25.875 0 0 1-13.82 3.58 26.054 26.054 0 0 1-4.701-.545c-.167-.035-.333-.078-.5-.116-2.487-6.099-2.5-12.173-2.247-15.465.12-1.574.301-2.515.301-2.515zM15.745 22.9S12.273 35.616 18.61 50.89a26.12 26.12 0 0 1-5.368-2.273l-.055-.03A25.865 25.865 0 0 1 3.175 38.408a26.147 26.147 0 0 1-1.878-4.343c-.054-.163-.099-.328-.15-.492 4.038-5.202 9.293-8.25 12.27-9.678 1.423-.683 2.328-.997 2.328-.997zm35.536-2.96c.445 1.86.695 3.795.716 5.786l.002.064a25.868 25.868 0 0 1-3.81 13.76 26.134 26.134 0 0 1-2.821 3.797c-.115.127-.235.249-.352.374-6.524-.895-11.79-3.921-14.516-5.786-1.302-.892-2.026-1.517-2.026-1.517S41.223 33.065 51.28 19.94zM6.983 8.25c6.525.895 11.792 3.922 14.517 5.786 1.302.89 2.026 1.517 2.026 1.517S10.778 18.904.718 32.028a26.047 26.047 0 0 1-.715-5.784L0 26.181A25.871 25.871 0 0 1 3.81 12.42a26.18 26.18 0 0 1 2.822-3.797c.114-.128.235-.25.351-.375zM33.39 1.07a26.021 26.021 0 0 1 5.368 2.272l.055.03a25.864 25.864 0 0 1 10.012 10.18 25.98 25.98 0 0 1 1.878 4.342c.053.163.098.327.149.492-4.038 5.203-9.292 8.25-12.27 9.678-1.422.682-2.327.997-2.327.997s3.471-12.719-2.865-27.991zM26.134 0l.503.007c1.582.04 3.157.221 4.7.545.167.036.333.079.5.117 2.487 6.098 2.499 12.172 2.247 15.465-.12 1.573-.301 2.515-.301 2.515S24.506 9.283 8.11 7.135a26.1 26.1 0 0 1 4.651-3.513c.019-.01.036-.023.055-.033A25.877 25.877 0 0 1 26.637.009z"></path></svg></g><path fill="#000000" fill-rule="nonzero" d="M5.23 19.82L5.23 19.82Q3.17 19.82 2.03 18.96Q0.89 18.10 0.44 16.63Q0 15.17 0 13.37L0 13.37L0 6.50Q0 4.54 0.44 3.07Q0.89 1.61 2.03 0.80Q3.17 0 5.23 0L5.23 0Q7.06 0 8.12 0.67Q9.19 1.34 9.66 2.59Q10.13 3.84 10.13 5.59L10.13 5.59L10.13 7.13L7.56 7.13L7.56 5.76Q7.56 4.68 7.45 3.85Q7.34 3.02 6.86 2.57Q6.38 2.11 5.26 2.11L5.26 2.11Q4.10 2.11 3.58 2.60Q3.05 3.10 2.89 4.00Q2.74 4.90 2.74 6.10L2.74 6.10L2.74 13.80Q2.74 15.26 2.98 16.12Q3.22 16.97 3.77 17.33Q4.32 17.69 5.26 17.69L5.26 17.69Q6.36 17.69 6.84 17.20Q7.32 16.70 7.44 15.84Q7.56 14.98 7.56 13.82L7.56 13.82L7.56 12.38L10.13 12.38L10.13 13.82Q10.13 15.60 9.70 16.96Q9.26 18.31 8.21 19.07Q7.15 19.82 5.23 19.82ZM15.14 19.61L12.58 19.61L12.58 0.17L15.14 0.17L15.14 7.18Q15.84 6.50 16.70 6.02Q17.57 5.54 18.62 5.54L18.62 5.54Q19.44 5.54 19.88 5.98Q20.33 6.41 20.51 7.06Q20.69 7.70 20.69 8.38L20.69 8.38L20.69 19.61L18.12 19.61L18.12 9.12Q18.12 8.38 17.90 7.97Q17.69 7.56 17.02 7.56L17.02 7.56Q16.56 7.56 16.07 7.82Q15.58 8.09 15.14 8.47L15.14 8.47L15.14 19.61ZM25.82 19.61L23.26 19.61L23.26 5.74L25.82 5.74L25.82 7.70Q26.59 6.43 27.36 6Q28.13 5.57 28.90 5.57L28.90 5.57Q28.99 5.57 29.08 5.57Q29.16 5.57 29.30 5.59L29.30 5.59L29.30 8.42Q29.02 8.30 28.64 8.22Q28.27 8.14 27.89 8.14L27.89 8.14Q27.29 8.14 26.80 8.41Q26.30 8.69 25.82 9.48L25.82 9.48L25.82 19.61ZM33.62 19.61L31.06 19.61L31.06 5.74L33.62 5.74L33.62 19.61ZM33.62 3.67L31.06 3.67L31.06 0.98L33.62 0.98L33.62 3.67ZM39.60 19.80L39.60 19.80Q37.90 19.80 36.86 18.73Q35.83 17.66 35.69 15.91L35.69 15.91L37.82 15.26Q38.02 16.58 38.47 17.24Q38.93 17.90 39.82 17.90L39.82 17.90Q40.51 17.90 40.87 17.51Q41.23 17.11 41.23 16.44L41.23 16.44Q41.23 15.84 40.97 15.36Q40.70 14.88 40.10 14.38L40.10 14.38L37.73 12.34Q37.01 11.71 36.52 10.94Q36.02 10.18 36.02 8.95L36.02 8.95Q36.02 7.85 36.47 7.09Q36.91 6.34 37.72 5.94Q38.52 5.54 39.60 5.54L39.60 5.54Q41.26 5.54 42.13 6.61Q43.01 7.68 43.13 9.19L43.13 9.19L41.40 9.84Q41.30 9.12 41.11 8.58Q40.92 8.04 40.58 7.74Q40.25 7.44 39.70 7.44L39.70 7.44Q39.07 7.44 38.70 7.86Q38.33 8.28 38.33 8.86L38.33 8.86Q38.33 9.22 38.48 9.56Q38.64 9.91 39.02 10.25L39.02 10.25L41.47 12.50Q41.98 12.96 42.42 13.49Q42.86 14.02 43.15 14.69Q43.44 15.36 43.44 16.25L43.44 16.25Q43.44 17.42 42.96 18.22Q42.48 19.01 41.62 19.40Q40.75 19.80 39.60 19.80ZM49.06 19.80L49.06 19.80Q47.98 19.80 47.32 19.39Q46.66 18.98 46.36 18.24Q46.06 17.50 46.06 16.49L46.06 16.49L46.06 7.44L44.59 7.44L44.59 5.74L46.06 5.74L46.06 1.68L48.62 1.68L48.62 5.74L50.86 5.74L50.86 7.44L48.62 7.44L48.62 16.32Q48.62 17.14 48.89 17.48Q49.15 17.83 49.90 17.83L49.90 17.83Q50.09 17.83 50.34 17.81Q50.59 17.78 50.83 17.76L50.83 17.76L50.83 19.66Q50.35 19.73 49.94 19.76Q49.54 19.80 49.06 19.80ZM55.49 19.61L52.92 19.61L52.92 5.74L55.49 5.74L55.49 19.61ZM55.49 3.67L52.92 3.67L52.92 0.98L55.49 0.98L55.49 3.67ZM60.74 19.80L60.74 19.80Q59.93 19.80 59.30 19.33Q58.68 18.86 58.32 18.13Q57.96 17.40 57.96 16.58L57.96 16.58Q57.96 15.29 58.39 14.40Q58.82 13.51 59.58 12.90Q60.34 12.29 61.33 11.83Q62.33 11.38 63.43 10.94L63.43 10.94L63.43 9.96Q63.43 9.12 63.34 8.57Q63.24 8.02 62.94 7.74Q62.64 7.46 62.04 7.46L62.04 7.46Q61.51 7.46 61.19 7.70Q60.86 7.94 60.72 8.39Q60.58 8.83 60.58 9.43L60.58 9.43L60.58 10.13L58.03 10.03Q58.08 7.73 59.09 6.64Q60.10 5.54 62.21 5.54L62.21 5.54Q64.27 5.54 65.14 6.67Q66 7.80 66 9.94L66 9.94L66 16.27Q66 16.92 66.04 17.52Q66.07 18.12 66.13 18.64Q66.19 19.15 66.24 19.61L66.24 19.61L63.89 19.61Q63.82 19.22 63.71 18.64Q63.60 18.05 63.55 17.57L63.55 17.57Q63.31 18.38 62.63 19.09Q61.94 19.80 60.74 19.80ZM61.75 17.59L61.75 17.59Q62.14 17.59 62.47 17.38Q62.81 17.16 63.07 16.88Q63.34 16.61 63.43 16.44L63.43 16.44L63.43 12.50Q62.83 12.84 62.30 13.18Q61.78 13.51 61.38 13.88Q60.98 14.26 60.76 14.72Q60.53 15.19 60.53 15.79L60.53 15.79Q60.53 16.63 60.84 17.11Q61.15 17.59 61.75 17.59ZM71.04 19.61L68.47 19.61L68.47 5.74L71.04 5.74L71.04 7.10Q71.74 6.46 72.58 6Q73.42 5.54 74.42 5.54L74.42 5.54Q75.26 5.54 75.71 5.98Q76.15 6.41 76.33 7.06Q76.51 7.70 76.51 8.38L76.51 8.38L76.51 19.61L73.94 19.61L73.94 9.12Q73.94 8.38 73.73 7.97Q73.51 7.56 72.84 7.56L72.84 7.56Q72.41 7.56 71.94 7.81Q71.47 8.06 71.04 8.42L71.04 8.42L71.04 19.61ZM89.16 19.61L84.72 19.61L84.72 0.17L88.94 0.17Q91.10 0.17 92.36 0.83Q93.62 1.49 94.16 2.81Q94.70 4.13 94.70 6.10L94.70 6.10L94.70 13.25Q94.70 15.31 94.16 16.73Q93.62 18.14 92.41 18.88Q91.20 19.61 89.16 19.61L89.16 19.61ZM87.43 2.18L87.43 17.66L88.97 17.66Q90.46 17.66 91.08 17.09Q91.70 16.51 91.84 15.41Q91.97 14.30 91.97 12.74L91.97 12.74L91.97 6.43Q91.97 4.92 91.78 3.98Q91.58 3.05 90.94 2.62Q90.29 2.18 88.90 2.18L88.90 2.18L87.43 2.18ZM99.14 19.80L99.14 19.80Q98.33 19.80 97.87 19.37Q97.42 18.94 97.24 18.29Q97.06 17.64 97.06 16.97L97.06 16.97L97.06 5.74L99.62 5.74L99.62 16.20Q99.62 16.94 99.84 17.36Q100.06 17.78 100.73 17.78L100.73 17.78Q101.16 17.78 101.63 17.53Q102.10 17.28 102.53 16.92L102.53 16.92L102.53 5.74L105.10 5.74L105.10 19.61L102.53 19.61L102.53 18.24Q101.86 18.89 101.00 19.34Q100.15 19.80 99.14 19.80ZM112.68 19.80L112.68 19.80Q111.94 19.80 111.35 19.43Q110.76 19.06 110.33 18.60L110.33 18.60L110.33 19.61L107.76 19.61L107.76 0.17L110.33 0.17L110.33 6.84Q110.78 6.31 111.42 5.93Q112.06 5.54 112.94 5.54L112.94 5.54Q114.02 5.54 114.66 6.11Q115.30 6.67 115.61 7.52Q115.92 8.38 116.02 9.25Q116.11 10.13 116.11 10.75L116.11 10.75L116.11 14.11Q116.11 15.58 115.82 16.88Q115.54 18.19 114.79 19.00Q114.05 19.80 112.68 19.80ZM112.15 17.78L112.15 17.78Q112.82 17.78 113.11 17.29Q113.40 16.80 113.47 15.96Q113.54 15.12 113.54 14.11L113.54 14.11L113.54 10.75Q113.54 9.89 113.45 9.16Q113.35 8.42 113.04 7.99Q112.73 7.56 112.06 7.56L112.06 7.56Q111.55 7.56 111.11 7.78Q110.66 7.99 110.33 8.26L110.33 8.26L110.33 17.16Q110.66 17.42 111.13 17.60Q111.60 17.78 112.15 17.78ZM122.26 19.80L122.26 19.80Q120.72 19.80 119.83 19.18Q118.94 18.55 118.57 17.40Q118.20 16.25 118.20 14.69L118.20 14.69L118.20 10.66Q118.20 9.10 118.57 7.94Q118.94 6.79 119.83 6.17Q120.72 5.54 122.26 5.54L122.26 5.54Q123.79 5.54 124.67 6.17Q125.54 6.79 125.92 7.94Q126.29 9.10 126.29 10.66L126.29 10.66L126.29 14.69Q126.29 16.25 125.92 17.40Q125.54 18.55 124.67 19.18Q123.79 19.80 122.26 19.80ZM122.26 17.90L122.26 17.90Q123.00 17.90 123.30 17.47Q123.60 17.04 123.66 16.33Q123.72 15.62 123.72 14.86L123.72 14.86L123.72 10.51Q123.72 9.72 123.66 9.02Q123.60 8.33 123.30 7.88Q123.00 7.44 122.26 7.44L122.26 7.44Q121.51 7.44 121.20 7.88Q120.89 8.33 120.83 9.02Q120.77 9.72 120.77 10.51L120.77 10.51L120.77 14.86Q120.77 15.62 120.83 16.33Q120.89 17.04 121.20 17.47Q121.51 17.90 122.26 17.90ZM132.43 19.80L132.43 19.80Q130.73 19.80 129.85 19.12Q128.98 18.43 128.68 17.18Q128.38 15.94 128.38 14.28L128.38 14.28L128.38 11.09Q128.38 9.34 128.69 8.10Q129 6.86 129.88 6.20Q130.75 5.54 132.43 5.54L132.43 5.54Q133.94 5.54 134.77 6.04Q135.60 6.53 135.91 7.50Q136.22 8.47 136.22 9.91L136.22 9.91L136.22 10.73L133.90 10.73L133.90 9.89Q133.90 8.98 133.78 8.45Q133.66 7.92 133.34 7.68Q133.03 7.44 132.46 7.44L132.46 7.44Q131.83 7.44 131.50 7.73Q131.16 8.02 131.05 8.70Q130.94 9.38 130.94 10.56L130.94 10.56L130.94 14.93Q130.94 16.70 131.28 17.30Q131.62 17.90 132.48 17.90L132.48 17.90Q133.13 17.90 133.43 17.60Q133.73 17.30 133.81 16.75Q133.90 16.20 133.90 15.50L133.90 15.50L133.90 14.38L136.22 14.38L136.22 15.34Q136.22 16.73 135.90 17.74Q135.58 18.74 134.75 19.27Q133.92 19.80 132.43 19.80ZM148.80 19.82L148.80 19.82Q147.12 19.82 146.00 19.10Q144.89 18.38 144.31 17.11Q143.74 15.84 143.64 14.16L143.64 14.16L146.04 13.51Q146.11 14.54 146.36 15.50Q146.62 16.46 147.19 17.08Q147.77 17.69 148.80 17.69L148.80 17.69Q149.86 17.69 150.40 17.10Q150.94 16.51 150.94 15.41L150.94 15.41Q150.94 14.09 150.34 13.28Q149.74 12.48 148.82 11.66L148.82 11.66L145.56 8.78Q144.60 7.94 144.14 6.95Q143.69 5.95 143.69 4.49L143.69 4.49Q143.69 2.35 144.91 1.18Q146.14 0 148.25 0L148.25 0Q149.40 0 150.28 0.30Q151.15 0.60 151.74 1.22Q152.33 1.85 152.68 2.80Q153.02 3.74 153.14 5.02L153.14 5.02L150.84 5.64Q150.77 4.68 150.55 3.88Q150.34 3.07 149.80 2.58Q149.26 2.09 148.25 2.09L148.25 2.09Q147.24 2.09 146.68 2.63Q146.11 3.17 146.11 4.22L146.11 4.22Q146.11 5.11 146.41 5.69Q146.71 6.26 147.38 6.86L147.38 6.86L150.67 9.74Q151.78 10.70 152.62 12.04Q153.46 13.37 153.46 15.19L153.46 15.19Q153.46 16.63 152.86 17.68Q152.26 18.72 151.21 19.27Q150.17 19.82 148.80 19.82ZM159.19 19.80L159.19 19.80Q157.56 19.80 156.67 19.16Q155.78 18.53 155.44 17.29Q155.09 16.06 155.09 14.26L155.09 14.26L155.09 11.09Q155.09 9.24 155.45 8.02Q155.81 6.79 156.71 6.17Q157.61 5.54 159.19 5.54L159.19 5.54Q160.94 5.54 161.77 6.26Q162.60 6.98 162.86 8.34Q163.13 9.70 163.13 11.59L163.13 11.59L163.13 12.72L157.66 12.72L157.66 15.50Q157.66 16.34 157.81 16.87Q157.97 17.40 158.32 17.65Q158.66 17.90 159.22 17.90L159.22 17.90Q159.79 17.90 160.09 17.63Q160.39 17.35 160.50 16.84Q160.61 16.32 160.61 15.62L160.61 15.62L160.61 14.78L163.10 14.78L163.10 15.31Q163.10 17.40 162.22 18.60Q161.33 19.80 159.19 19.80ZM157.66 10.58L157.66 11.33L160.61 11.33L160.61 10.08Q160.61 9.22 160.51 8.63Q160.42 8.04 160.12 7.74Q159.82 7.44 159.17 7.44L159.17 7.44Q158.54 7.44 158.22 7.73Q157.90 8.02 157.78 8.70Q157.66 9.38 157.66 10.58L157.66 10.58ZM168.10 19.61L165.53 19.61L165.53 5.74L168.10 5.74L168.10 7.70Q168.86 6.43 169.63 6Q170.40 5.57 171.17 5.57L171.17 5.57Q171.26 5.57 171.35 5.57Q171.43 5.57 171.58 5.59L171.58 5.59L171.58 8.42Q171.29 8.30 170.92 8.22Q170.54 8.14 170.16 8.14L170.16 8.14Q169.56 8.14 169.07 8.41Q168.58 8.69 168.10 9.48L168.10 9.48L168.10 19.61ZM178.10 19.61L174.96 19.61L172.22 5.74L174.82 5.74L176.52 16.90L178.25 5.74L180.74 5.74L178.10 19.61ZM185.14 19.61L182.57 19.61L182.57 5.74L185.14 5.74L185.14 19.61ZM185.14 3.67L182.57 3.67L182.57 0.98L185.14 0.98L185.14 3.67ZM191.69 19.80L191.69 19.80Q189.98 19.80 189.11 19.12Q188.23 18.43 187.93 17.18Q187.63 15.94 187.63 14.28L187.63 14.28L187.63 11.09Q187.63 9.34 187.94 8.10Q188.26 6.86 189.13 6.20Q190.01 5.54 191.69 5.54L191.69 5.54Q193.20 5.54 194.03 6.04Q194.86 6.53 195.17 7.50Q195.48 8.47 195.48 9.91L195.48 9.91L195.48 10.73L193.15 10.73L193.15 9.89Q193.15 8.98 193.03 8.45Q192.91 7.92 192.60 7.68Q192.29 7.44 191.71 7.44L191.71 7.44Q191.09 7.44 190.75 7.73Q190.42 8.02 190.31 8.70Q190.20 9.38 190.20 10.56L190.20 10.56L190.20 14.93Q190.20 16.70 190.54 17.30Q190.87 17.90 191.74 17.90L191.74 17.90Q192.38 17.90 192.68 17.60Q192.98 17.30 193.07 16.75Q193.15 16.20 193.15 15.50L193.15 15.50L193.15 14.38L195.48 14.38L195.48 15.34Q195.48 16.73 195.16 17.74Q194.83 18.74 194.00 19.27Q193.18 19.80 191.69 19.80ZM201.60 19.80L201.60 19.80Q199.97 19.80 199.08 19.16Q198.19 18.53 197.84 17.29Q197.50 16.06 197.50 14.26L197.50 14.26L197.50 11.09Q197.50 9.24 197.86 8.02Q198.22 6.79 199.12 6.17Q200.02 5.54 201.60 5.54L201.60 5.54Q203.35 5.54 204.18 6.26Q205.01 6.98 205.27 8.34Q205.54 9.70 205.54 11.59L205.54 11.59L205.54 12.72L200.06 12.72L200.06 15.50Q200.06 16.34 200.22 16.87Q200.38 17.40 200.72 17.65Q201.07 17.90 201.62 17.90L201.62 17.90Q202.20 17.90 202.50 17.63Q202.80 17.35 202.91 16.84Q203.02 16.32 203.02 15.62L203.02 15.62L203.02 14.78L205.51 14.78L205.51 15.31Q205.51 17.40 204.62 18.60Q203.74 19.80 201.60 19.80ZM200.06 10.58L200.06 11.33L203.02 11.33L203.02 10.08Q203.02 9.22 202.92 8.63Q202.82 8.04 202.52 7.74Q202.22 7.44 201.58 7.44L201.58 7.44Q200.95 7.44 200.63 7.73Q200.30 8.02 200.18 8.70Q200.06 9.38 200.06 10.58L200.06 10.58Z" transform="translate(36, 8.088)"></path></svg>